<?xml version="1.0" encoding="UTF-8"?>
<svg xmlns="http://www.w3.org/2000/svg" xmlns:xlink="http://www.w3.org/1999/xlink" width="30pt" height="30.000001pt" viewBox="0 0 30 30.000001" version="1.2">
<defs>
<clipPath id="clip1">
  <path d="M 2.296875 0 L 27.703125 0 L 27.703125 8 L 2.296875 8 Z M 2.296875 0 "/>
</clipPath>
<clipPath id="clip2">
  <path d="M 4 9 L 26 9 L 26 29.03125 L 4 29.03125 Z M 4 9 "/>
</clipPath>
</defs>
<g id="surface1">
<g clip-path="url(#clip1)" clip-rule="nonzero">
<path style=" stroke:none;fill-rule:nonzero;fill:rgb(0%,0%,0%);fill-opacity:1;" d="M 26.792969 3.5625 L 20.445312 3.5625 L 20.445312 0.90625 C 20.445312 0.410156 20.035156 0 19.535156 0 L 10.464844 0 C 9.964844 0 9.554688 0.410156 9.554688 0.90625 L 9.554688 3.5625 L 3.207031 3.5625 C 2.707031 3.5625 2.296875 3.96875 2.296875 4.46875 L 2.296875 6.28125 C 2.296875 6.78125 2.707031 7.191406 3.207031 7.191406 L 26.792969 7.191406 C 27.292969 7.191406 27.703125 6.78125 27.703125 6.28125 L 27.703125 4.46875 C 27.703125 3.96875 27.292969 3.5625 26.792969 3.5625 Z M 26.792969 3.5625 "/>
</g>
<g clip-path="url(#clip2)" clip-rule="nonzero">
<path style=" stroke:none;fill-rule:nonzero;fill:rgb(0%,0%,0%);fill-opacity:1;" d="M 6.289062 28.238281 C 6.335938 28.691406 6.722656 29.03125 7.199219 29.03125 L 22.824219 29.03125 C 23.277344 29.03125 23.664062 28.691406 23.730469 28.238281 L 25.910156 9.09375 L 4.113281 9.09375 Z M 18.628906 25.289062 L 20.214844 12.609375 C 20.285156 12.113281 20.738281 11.773438 21.238281 11.816406 C 21.738281 11.886719 22.078125 12.339844 22.03125 12.835938 L 20.445312 25.515625 C 20.375 25.96875 19.988281 26.308594 19.535156 26.308594 C 19.492188 26.308594 19.46875 26.308594 19.421875 26.308594 C 18.925781 26.242188 18.582031 25.789062 18.628906 25.289062 Z M 14.09375 12.722656 C 14.09375 12.226562 14.5 11.816406 15 11.816406 C 15.5 11.816406 15.90625 12.226562 15.90625 12.722656 L 15.90625 25.402344 C 15.90625 25.902344 15.5 26.308594 15 26.308594 C 14.5 26.308594 14.09375 25.902344 14.09375 25.402344 Z M 8.761719 11.816406 C 9.261719 11.75 9.714844 12.113281 9.785156 12.609375 L 11.371094 25.289062 C 11.4375 25.789062 11.074219 26.242188 10.578125 26.308594 C 10.53125 26.308594 10.507812 26.308594 10.464844 26.308594 C 10.011719 26.308594 9.625 25.96875 9.554688 25.515625 L 7.96875 12.835938 C 7.921875 12.339844 8.261719 11.886719 8.761719 11.816406 Z M 8.761719 11.816406 "/>
</g>
</g>
</svg>
